{"glyphs":{"0":{"ha":797,"x_min":0,"x_max":0,"o":"m 644 997 l 644 998 l 141 998 l -328 186 l -222 0 l 280 0 b 749 811 280 1 583 523 l 644 997 z m 174 260 l -34 260 l 239 737 l 449 737 l 174 260 z "},"1":{"ha":840,"x_min":0,"x_max":0,"o":"m 683 998 l 203 998 l 52 736 l 276 736 l 1 260 l -223 260 l -373 0 b 343 0 -191 0 157 0 l 493 260 l 257 260 b 683 998 416 536 513 703 z m -167 817 b -170 811 -168 814 -169 813 l -167 817 z "},"2":{"ha":810,"x_min":0,"x_max":0,"o":"m 651 606 l 767 807 l 663 998 l 161 998 b 41 791 95 882 71 841 l -61 614 l 231 614 l 205 737 b 513 737 307 737 410 737 b -182 403 319 628 11 512 b -415 0 -261 267 -333 135 l 301 0 l 452 261 b -63 260 277 261 111 260 b 651 606 142 376 446 491 z "},"3":{"ha":833,"x_min":0,"x_max":0,"o":"m 184 998 b 118 884 156 948 135 913 l -38 614 l 347 614 l 266 737 l 498 737 l 382 546 l 265 546 l 327 454 l 210 260 l 21 260 l 111 416 l -153 416 l -393 0 l 323 0 l 587 456 l 526 546 l 639 546 l 792 811 l 686 998 l 184 998 z "},"4":{"ha":827,"x_min":0,"x_max":0,"o":"m 865 998 l 609 998 l 404 643 l 196 643 l 136 738 l 251 738 l 401 998 l 149 998 l -155 471 l 304 471 l 144 191 l 289 0 b 865 997 290 1 844 970 l 865 998 z "},"5":{"ha":840,"x_min":0,"x_max":0,"o":"m 228 643 l 168 737 b 736 737 386 737 519 737 b 891 998 802 850 890 996 b 169 998 652 998 407 998 l -132 471 l 354 471 l 235 260 l -254 260 l -408 0 l 313 0 b 684 643 317 6 682 643 l 228 643 z "},"6":{"ha":885,"x_min":0,"x_max":0,"o":"m -425 0 l 294 0 b 662 643 299 6 660 643 l 208 643 l 148 737 b 716 737 338 737 527 737 b 871 998 717 735 871 996 l 149 998 l -425 0 z m 338 471 l 219 260 l -59 260 l 63 471 l 338 471 z "},"7":{"ha":751,"x_min":0,"x_max":0,"o":"m 102 998 l 31 874 l -47 738 l 418 738 b -8 0 274 489 104 193 l 243 0 l 819 998 l 102 998 z "},"8":{"ha":833,"x_min":0,"x_max":0,"o":"m 167 998 l -409 0 l 307 0 l 883 998 l 167 998 z m 235 260 l -43 260 l 79 471 l 355 471 l 235 260 z m 181 643 l 235 737 l 517 737 l 462 643 l 181 643 z "},"9":{"ha":920,"x_min":0,"x_max":0,"o":"m 202 998 l -104 471 l 394 471 l 275 260 l -224 260 l -373 0 l 344 0 l 920 998 l 202 998 z m 220 643 l 159 737 l 555 737 l 500 643 l 220 643 z "},"\u0000":{"ha":694,"x_min":0,"x_max":0,"o":""}," ":{"ha":585,"x_min":0,"x_max":0,"o":""},"!":{"ha":483,"x_min":0,"x_max":0,"o":"m 416 996 l 160 996 l -224 330 l 32 330 b 156 546 76 407 117 479 b 416 996 231 675 318 825 z m -9 260 l -265 260 l -305 191 l -159 -1 b -9 260 -103 97 -53 184 z "},"\"":{"ha":863,"x_min":0,"x_max":0,"o":"m 240 736 l 356 736 l 506 996 l 250 996 l 99 736 l 240 736 z m 688 736 b 838 996 737 823 787 909 l 581 996 l 431 736 l 688 736 z "},"#":{"ha":1198,"x_min":0,"x_max":0,"o":"m 268 519 l 94 519 l 12 326 b 157 326 61 326 109 326 l 102 231 l 228 64 b 380 326 279 152 330 239 b 572 326 444 326 507 326 l 517 231 l 644 64 b 795 326 695 152 745 239 l 1015 326 l 905 515 b 940 576 917 536 928 555 l 1160 576 l 1050 766 l 1146 932 l 922 932 l 829 770 l 636 770 l 730 932 l 507 932 l 413 770 l 237 770 l 157 576 b 301 576 205 576 254 576 l 268 519 z m 525 576 b 717 576 588 576 652 576 l 684 519 l 492 519 b 525 576 503 538 513 557 z "},"$":{"ha":848,"x_min":0,"x_max":0,"o":"m -33 275 l 52 36 l 145 36 l 100 -43 l 234 -218 b 380 36 283 -133 332 -48 l 491 36 l 629 275 l 674 354 l 675 354 l 829 622 l 417 622 l 349 712 l 876 712 l 1021 951 l 770 951 l 857 1103 l 622 1103 l 534 951 l 357 951 l 151 593 l 114 530 l 198 382 l 456 382 l 393 275 l -33 275 z "},"%":{"ha":918,"x_min":0,"x_max":0,"o":"m 873 996 l 616 996 b 317 490 532 853 433 684 b 28 2 205 304 109 141 l 298 2 b 613 547 427 227 532 408 b 873 996 688 676 774 826 z m 540 953 l 283 953 l 133 693 l 390 693 b 540 953 439 779 490 866 z m 833 356 l 576 356 l 426 96 l 683 96 b 833 356 732 182 783 269 z "},"&":{"ha":1013,"x_min":0,"x_max":0,"o":"m 143 -1 l 219 -1 l 195 -43 l 328 -218 b 454 -1 371 -145 413 -73 l 646 -1 b 954 534 749 180 852 358 b 975 572 960 547 968 559 b 590 572 847 572 718 572 l 658 467 l 538 259 l 332 259 l 332 260 l 551 640 l 397 640 l 336 734 l 622 734 l 726 907 l 865 907 l 978 1103 l 743 1103 l 680 995 l 345 995 l 140 639 l 294 639 l 35 191 l 143 -1 z "},"'":{"ha":402,"x_min":0,"x_max":0,"o":"m 402 996 l 146 996 l -5 736 l 252 736 b 402 996 302 823 352 909 z "},"(":{"ha":932,"x_min":0,"x_max":0,"o":"m 136 7 l 131 -1 l 142 -1 l 388 -1 b 538 259 437 85 488 172 l 293 259 b 328 319 304 279 316 299 b 513 641 389 425 450 532 l 452 736 l 527 736 l 568 736 l 568 735 l 569 736 l 784 736 b 934 996 833 823 884 909 l 719 996 l 677 996 l 462 996 b 233 600 386 865 310 732 b -3 191 154 463 75 326 l 136 7 z "},")":{"ha":589,"x_min":0,"x_max":0,"o":"m -90 -1 l 125 -1 b 346 382 199 127 272 254 b 590 805 428 524 509 665 l 451 988 l 456 996 l 445 996 l 199 996 b 50 736 150 910 100 824 l 294 736 b 260 677 283 717 271 696 b 73 355 199 572 136 464 l 135 259 l 60 259 l 19 259 l 19 260 l 18 259 l -197 259 b -347 -1 -246 173 -296 87 l -132 -1 l -90 -1 z "},"*":{"ha":313,"x_min":0,"x_max":0,"o":"m 317 823 l 300 915 l 246 890 l 267 940 l 160 940 l 140 890 l 107 915 l 18 823 l 52 798 l -2 773 l 15 681 l 68 706 l 48 656 l 154 656 l 174 706 l 208 681 l 297 773 l 263 798 l 317 823 z "},"+":{"ha":1145,"x_min":0,"x_max":0,"o":"m 529 591 b 575 671 544 618 559 644 b 623 755 591 699 607 726 l 495 977 b 326 686 427 860 371 762 b 272 591 308 654 290 623 b 145 591 233 591 191 591 b -45 591 90 591 27 591 l -173 370 b 144 370 -59 370 47 370 b 78 255 124 334 102 296 b 50 206 68 239 60 223 l 178 -16 b 255 117 205 31 231 75 b 401 370 306 205 355 290 b 718 370 494 370 600 370 l 846 591 b 529 591 723 591 617 591 z "},",":{"ha":351,"x_min":0,"x_max":0,"o":"m -467 -1 l -317 -1 l -376 -102 l -271 -102 l -213 -1 l -210 -1 b -60 259 -161 85 -111 172 l -317 259 l -467 -1 z "},"-":{"ha":884,"x_min":0,"x_max":0,"o":"m -76 578 l -165 425 b 475 425 88 425 222 425 l 564 578 l -76 578 z "},".":{"ha":326,"x_min":0,"x_max":0,"o":"m -465 -1 l -208 -1 b -58 259 -159 85 -109 172 l -315 259 l -465 -1 z "},"/":{"ha":349,"x_min":0,"x_max":0,"o":"m -373 191 l -228 -1 b 89 547 -98 224 8 407 b 349 996 163 676 250 826 l 92 996 b 47 919 77 970 62 945 b -373 191 -94 675 -234 432 z "},":":{"ha":460,"x_min":0,"x_max":0,"o":"m -8 576 l 249 576 b 399 836 298 662 349 749 l 142 836 l -8 576 z m -212 161 l 45 161 b 195 421 95 247 145 334 l -62 421 l -212 161 z "},";":{"ha":434,"x_min":0,"x_max":0,"o":"m -3 576 l 254 576 b 404 836 303 662 353 749 l 147 836 l -3 576 z m -206 161 l -56 161 l -115 59 l -11 59 l 48 161 l 50 161 b 200 421 100 247 150 334 l -56 421 l -206 161 z "},"<":{"ha":767,"x_min":0,"x_max":0,"o":"m 35 399 b 149 332 54 388 92 366 b 332 225 208 298 269 262 b 464 149 385 195 428 170 b 519 117 499 128 518 117 l 595 360 b 539 393 576 371 557 382 b 332 516 470 434 401 475 b 616 640 427 557 522 599 b 692 673 642 651 667 662 l 767 916 b 690 884 764 915 739 904 b 512 807 642 863 583 837 b 263 701 425 770 342 734 b 107 633 184 667 132 644 l 35 399 z "},"=":{"ha":874,"x_min":0,"x_max":0,"o":"m 113 467 l 1 313 b 438 313 181 313 327 313 b 796 313 534 313 653 313 l 755 467 b 441 467 651 467 546 467 b 113 467 331 467 222 467 z m 191 720 l 80 566 b 516 566 259 566 405 566 b 874 566 612 566 731 566 l 833 720 b 511 720 726 720 618 720 b 191 720 403 720 296 720 z "},">":{"ha":922,"x_min":0,"x_max":0,"o":"m 286 916 l 210 673 b 266 640 229 662 248 650 b 473 516 335 599 404 557 b 191 393 379 475 285 434 b 114 360 165 382 139 371 l 39 117 b 115 149 41 117 66 128 b 293 226 163 170 222 195 b 542 332 380 263 463 298 b 698 399 621 366 673 388 l 770 633 b 656 701 752 644 713 667 b 473 807 598 734 537 770 b 342 884 421 837 377 863 b 286 916 306 904 287 915 z "},"?":{"ha":848,"x_min":0,"x_max":0,"o":"m 591 997 l 125 997 l -24 738 l 442 738 l 296 484 l -94 484 l -182 331 l -223 260 l 33 260 b 75 331 47 283 60 307 b 106 331 85 331 96 331 b 348 331 162 331 242 331 l 463 331 b 589 547 508 408 549 480 b 848 997 663 677 750 827 l 848 997 l 591 997 z m -373 0 l -117 0 b -98 33 -111 11 -104 22 b -7 191 -68 85 -37 138 l -263 191 l -373 0 z "},"@":{"ha":1236,"x_min":0,"x_max":0,"o":"m 1235 997 l 1223 997 l 978 997 b 874 817 943 937 909 878 l 817 817 l 527 817 b 631 997 562 877 596 937 l 416 997 l 374 997 l 159 997 b -41 649 92 881 25 765 b -306 191 -130 495 -218 342 l -167 8 l -172 0 l -160 0 l 85 0 b 166 141 112 47 139 94 l 513 141 b 432 0 486 94 459 47 l 647 0 l 689 0 l 904 0 b 1139 408 982 136 1061 272 b 1369 806 1217 541 1293 674 l 1230 989 l 1235 997 z m 123 260 l -10 260 b 22 315 1 279 12 297 b 211 642 84 422 147 531 l 149 737 l 224 737 l 265 737 l 265 736 l 266 737 l 404 737 b 343 640 383 705 363 673 l 492 640 l 492 641 l 785 641 l 667 576 l 311 576 b 291 541 311 576 304 564 b 238 453 277 518 260 489 b 172 341 217 418 195 380 b 123 260 155 313 138 286 z m 506 317 l 317 317 l 409 460 l 595 460 l 506 317 z m 913 260 l 839 260 l 798 260 l 798 261 l 797 260 l 644 260 l 650 271 l 651 271 b 707 361 667 295 685 326 b 773 467 732 401 754 437 l 800 512 l 941 737 l 1073 737 b 1039 678 1062 718 1050 698 b 852 355 978 573 916 465 l 913 260 z "},"A":{"ha":885,"x_min":0,"x_max":0,"o":"m 113 996 l -372 191 l -373 190 l -229 -1 b -40 320 -165 107 -102 214 b -7 376 -29 338 -18 357 l 264 376 l 156 190 l 299 -1 b 490 322 363 106 426 214 b 677 640 552 428 614 534 l 618 736 l 733 736 l 885 996 l 113 996 z m 386 583 l 114 583 l 116 587 b 150 645 127 607 139 626 b 203 736 168 675 186 705 l 475 736 l 386 583 z "},"B":{"ha":865,"x_min":0,"x_max":0,"o":"m 865 996 l 100 996 b 49 909 100 996 83 966 b -75 697 15 850 -26 780 b -220 451 -124 614 -172 532 b -336 252 -267 370 -307 303 b -373 190 -355 220 -367 200 l -229 -1 l 269 -1 l 427 258 l 448 293 l 361 458 l 637 607 l 865 996 z m -77 258 l 58 487 l 195 258 l -77 258 z m 74 514 b 148 640 98 555 123 597 l 148 641 l 87 736 l 486 736 l 74 514 z "},"C":{"ha":872,"x_min":0,"x_max":0,"o":"m -373 190 l -229 -1 l 267 -1 l 382 190 l 425 258 b 330 258 412 258 380 258 b 159 258 278 258 221 258 b -4 258 96 258 42 258 b -77 259 -50 258 -74 259 b -41 319 -64 279 -53 298 b 148 640 21 424 84 531 l 87 736 b 400 736 191 736 295 736 b 714 736 506 736 610 736 l 872 996 l 100 996 b -144 580 18 857 -63 718 b -373 190 -221 449 -297 319 z "},"D":{"ha":907,"x_min":0,"x_max":0,"o":"m 694 996 b -86 996 434 996 174 996 l 52 827 b -180 431 -22 701 -99 569 b -433 -1 -270 277 -354 133 l 203 -1 l 435 191 l 808 804 l 694 996 z m 496 734 l 207 258 b 90 258 168 258 129 258 b -27 257 52 258 12 257 b 7 316 -16 277 -4 296 b 198 640 70 422 134 530 l 138 736 b 316 736 197 736 257 736 b 496 735 376 736 436 735 l 496 734 z "},"E":{"ha":840,"x_min":0,"x_max":0,"o":"m 840 996 l 116 996 l -331 258 l -373 190 l -230 -1 l 236 -1 l 237 1 l 351 190 l 393 258 l -9 258 l -83 375 l 213 375 l 376 640 l 157 640 l 92 736 l 683 736 l 840 996 z "},"F":{"ha":867,"x_min":0,"x_max":0,"o":"m 116 996 l 100 996 b -125 612 25 868 -50 740 b -373 190 -208 470 -291 330 l -229 -1 b -65 277 -174 94 -119 186 b -7 376 -46 310 -27 342 b 193 376 60 376 126 376 b 394 376 260 376 327 376 l 564 640 l 148 640 l 87 736 l 709 736 l 712 740 l 867 996 b 116 996 617 996 367 996 z "},"G":{"ha":867,"x_min":0,"x_max":0,"o":"m 116 996 l 100 996 b -118 625 27 872 -45 749 b -373 190 -203 479 -288 334 l -230 -1 l -229 -1 l 263 -1 l 610 572 l 211 572 l 282 466 l 157 258 l -77 258 b -41 318 -65 278 -53 298 b 148 640 20 423 83 530 l 87 736 l 709 736 l 867 996 l 357 996 l 116 996 z "},"H":{"ha":886,"x_min":0,"x_max":0,"o":"m 886 996 l 629 996 l 420 640 b 284 640 375 640 330 640 b 148 640 239 640 193 640 l 87 736 l 204 736 l 357 996 l 100 996 b -123 616 26 869 -48 743 b -373 190 -207 473 -290 331 l -229 -1 b -66 275 -174 92 -120 184 b -7 376 -47 309 -27 342 b 129 376 38 376 83 376 b 265 376 174 376 220 376 l 156 190 l 300 -1 b 487 317 363 106 425 212 b 677 640 549 422 612 530 l 616 736 l 733 736 l 886 996 z "},"I":{"ha":357,"x_min":0,"x_max":0,"o":"m -229 -1 b -42 317 -166 106 -104 212 b 148 640 20 422 83 530 l 87 736 l 204 736 l 357 996 l 100 996 b -127 609 24 867 -52 738 b -373 190 -210 468 -292 328 l -229 -1 z "},"J":{"ha":832,"x_min":0,"x_max":0,"o":"m 563 736 l 680 736 l 832 996 l 575 996 l 102 190 l -373 190 l -254 -1 l 246 -1 b 433 317 309 106 372 212 b 623 640 496 423 559 530 l 563 736 z "},"K":{"ha":861,"x_min":0,"x_max":0,"o":"m 861 996 l 597 996 l 425 707 l 75 516 b 148 640 99 557 123 598 l 87 736 l 204 736 l 356 996 l 100 996 b -144 580 18 857 -63 718 b -373 190 -221 449 -298 319 l -229 -1 b -43 316 -167 105 -104 211 b 11 407 -25 346 -7 376 l 292 -1 l 566 -1 l 260 408 l 623 604 b 675 690 640 632 658 661 b 861 996 738 791 800 893 z "},"L":{"ha":548,"x_min":0,"x_max":0,"o":"m 357 996 l 100 996 b -171 534 10 842 -81 688 b -373 190 -239 418 -306 304 l -229 -1 l 251 -1 l 106 190 l -117 190 b -41 318 -92 233 -66 275 b 149 640 21 423 84 531 l 87 736 l 204 736 l 357 996 z "},"M":{"ha":1086,"x_min":0,"x_max":0,"o":"m 833 736 l 934 736 l 1086 996 l 964 996 l 829 996 l 771 996 l 736 996 l 711 996 l 659 996 l 455 996 l 431 996 l 357 996 l 355 996 l 138 996 l 127 996 l 100 996 b -78 693 41 895 -18 794 b -373 190 -177 524 -275 357 l -229 -1 b -42 317 -166 106 -104 212 b 148 640 20 423 83 530 l 87 736 l 204 736 b 302 736 227 736 260 736 l 103 396 l 247 205 b 435 525 310 313 373 419 b 559 736 476 594 517 665 b 677 736 595 736 634 736 l 357 190 l 500 -1 b 687 317 563 106 625 212 b 878 640 749 422 813 530 l 817 736 l 832 736 l 833 736 z "},"N":{"ha":930,"x_min":0,"x_max":0,"o":"m 661 736 l 778 736 l 930 996 l 673 996 l 397 524 l 253 819 l 357 996 l 345 996 l 105 996 l 100 996 b -108 642 31 878 -39 760 b -373 190 -197 490 -286 339 l -229 -1 b -42 317 -166 106 -104 212 b 122 596 12 409 66 502 l 266 300 l 201 190 l 345 -1 b 532 317 408 106 470 212 b 722 640 594 422 657 530 l 661 736 z "},"O":{"ha":874,"x_min":0,"x_max":0,"o":"m 874 996 b 116 996 622 996 369 996 l -42 736 l -331 258 l -373 190 l -258 -1 l 269 -1 l 427 258 l 874 996 z m 157 258 l -61 258 l 171 641 l 107 736 l 447 736 l 157 258 z "},"P":{"ha":876,"x_min":0,"x_max":0,"o":"m 718 736 l 876 996 l 100 996 b -144 581 20 859 -61 721 b -373 190 -223 445 -300 315 l -225 -1 l 20 415 l 292 415 l 637 604 l 718 736 z m 71 503 l 153 641 l 91 736 l 494 736 l 71 503 z "},"Q":{"ha":874,"x_min":0,"x_max":0,"o":"m 874 996 b 116 996 622 996 369 996 l -41 736 l -331 258 l -373 190 l -258 -1 l -210 -1 l -135 -1 l -174 -67 l -22 -258 l 134 -1 l 183 -1 l 269 -1 l 427 258 l 874 996 z m 157 258 l -61 258 l 171 641 l 107 736 l 447 736 l 157 258 z "},"R":{"ha":876,"x_min":0,"x_max":0,"o":"m 876 997 l 122 997 l 100 997 l -138 997 l 1 828 b -144 582 -47 746 -96 664 b -373 191 -223 446 -300 316 l -359 174 l -229 0 l 14 406 l 292 0 l 566 0 l 278 409 l 361 454 l 360 454 l 637 605 l 718 737 l 876 997 z m 71 504 l 153 642 l 91 737 l 494 737 l 71 504 z "},"S":{"ha":833,"x_min":0,"x_max":0,"o":"m 90 996 l -155 606 l -199 536 l -99 376 l 206 376 l 132 258 l -373 258 l -273 -1 l 248 -1 l 623 637 l 161 637 l 80 736 l 680 736 l 833 996 l 369 996 l 90 996 z "},"T":{"ha":786,"x_min":0,"x_max":0,"o":"m 811 996 l 787 996 l 319 996 l 47 996 l -111 736 l 174 736 l -146 190 l -2 -1 b 184 317 61 106 123 212 b 375 640 247 422 311 530 l 315 736 l 653 736 l 811 996 z "},"U":{"ha":856,"x_min":0,"x_max":0,"o":"m 856 996 l 599 996 l 166 258 l -77 258 b -42 317 -65 278 -54 297 b 148 640 20 422 83 530 l 87 736 l 204 736 l 357 996 l 100 996 b -153 565 16 852 -68 709 b -373 190 -227 439 -300 314 l -229 -1 l 270 -1 l 272 3 l 275 7 b 458 317 336 111 397 215 b 647 640 519 423 583 530 l 587 736 l 703 736 l 856 996 z "},"V":{"ha":856,"x_min":0,"x_max":0,"o":"m 28 93 l -77 258 b -43 314 -66 277 -55 296 b 148 640 19 420 83 530 l 87 736 l 204 736 l 357 996 l 100 996 b -373 190 -59 725 -216 456 l -229 -1 l 270 -1 b 460 323 334 106 397 215 b 647 640 523 429 585 534 l 587 736 l 703 736 l 856 996 l 599 996 l 28 93 z "},"W":{"ha":1086,"x_min":0,"x_max":0,"o":"m 635 664 b 615 631 629 653 622 642 b 396 258 543 507 469 382 b 298 258 374 258 340 258 l 522 640 l 266 640 b 167 471 233 584 200 528 b 41 258 125 401 83 330 b -77 258 5 258 -34 258 l -58 290 b -41 320 -52 300 -46 310 b 148 640 21 425 84 532 l 87 736 l 204 736 l 357 996 l 100 996 l -188 505 l -230 434 l -373 190 l -229 -1 b 500 -1 14 -1 257 -1 b 796 502 599 166 698 334 b 1086 996 893 667 989 831 l 829 996 l 635 664 z "},"X":{"ha":888,"x_min":0,"x_max":0,"o":"m 358 997 l 101 997 l 98 997 b -19 798 58 928 19 862 b -57 733 -31 777 -44 755 b 1 631 -37 700 -18 665 b 30 578 10 613 20 595 l -250 399 b -319 281 -273 359 -296 320 b -372 191 -336 251 -354 221 l -228 0 b -66 275 -172 94 -119 186 l 135 391 l 209 274 b 196 252 208 273 204 266 b 167 201 189 239 179 222 l 161 191 l 308 0 b 425 199 347 66 387 133 b 461 259 437 218 449 238 b 423 330 460 261 448 284 b 335 493 398 376 369 431 b 246 659 302 555 272 611 b 206 738 220 707 207 734 l 358 997 z m 630 997 b 468 722 575 904 522 812 l 370 665 l 473 483 l 652 598 b 704 686 663 616 680 646 b 783 819 728 727 754 770 b 889 997 825 888 860 948 l 630 997 z "},"Y":{"ha":857,"x_min":0,"x_max":0,"o":"m 608 996 l 601 996 l 392 640 l 148 640 l 149 640 l 87 736 l 204 736 l 357 996 l 349 996 l 119 996 l 100 996 l -229 436 l 28 436 l 49 436 l 272 436 l 168 258 l -230 258 l -333 258 l -373 190 l -230 -1 l -230 -1 l -229 -1 l 271 -1 l 272 -1 l 272 -1 b 458 317 335 106 397 212 b 649 640 521 422 584 530 l 588 736 l 705 736 l 857 996 l 613 996 l 608 996 z "},"Z":{"ha":739,"x_min":0,"x_max":0,"o":"m 509 604 b 739 996 597 756 674 886 l 357 996 l 100 996 l 98 996 l -41 755 l -52 737 b 52 737 -28 737 7 737 b 193 738 98 738 144 738 b 318 738 241 738 283 738 b 370 737 353 738 370 737 b 298 694 370 736 347 722 b 119 591 250 666 190 631 l 113 587 l 106 584 l 100 580 l 95 577 l 94 576 l 87 572 l 83 570 l 81 568 b 27 538 63 558 45 548 l 22 535 l 20 534 l 14 530 l 7 526 l 1 523 l -3 521 l -6 519 l -13 515 l -15 514 l -26 507 l -27 507 l -33 503 l -46 496 l -52 493 l -53 492 l -59 488 l -63 486 l -66 484 l -73 481 l -75 479 l -79 477 l -85 473 l -87 472 l -92 469 l -98 466 l -99 465 l -104 462 l -111 458 l -117 455 l -130 448 l -134 446 l -136 444 l -142 441 l -144 439 l -148 437 l -154 434 l -155 433 l -159 431 l -165 427 l -166 427 l -172 424 l -177 420 l -183 417 l -187 414 l -189 414 l -194 410 l -197 408 l -199 408 l -205 404 l -208 403 l -210 401 l -216 398 l -217 397 l -269 368 l -373 190 l -229 -1 l 153 -1 b 305 258 197 75 248 161 l -76 258 l -76 259 b 219 433 26 317 123 375 b 509 604 312 490 409 547 z "},"[":{"ha":219,"x_min":0,"x_max":0,"o":"m 341 1029 l 126 1029 b -122 600 43 886 -39 743 b -339 224 -195 473 -267 348 l -194 33 l 52 33 b 125 161 77 75 101 118 l -119 161 b -9 351 -83 224 -46 288 b 178 674 52 457 114 564 l 116 770 l 232 770 l 232 768 l 309 901 l 524 901 b 598 1029 549 944 573 987 l 382 1029 l 341 1029 z "},"\\":{"ha":636,"x_min":0,"x_max":0,"o":"m 491 1029 b 174 481 361 804 255 621 b -85 33 100 353 13 203 l 171 33 b 398 425 247 163 322 294 b 636 838 478 564 557 701 l 491 1029 z "},"]":{"ha":598,"x_min":0,"x_max":0,"o":"m 452 1029 l 207 1029 b 188 996 201 1019 194 1008 b 133 901 170 965 151 933 l 378 901 b 268 711 341 838 304 774 b 81 388 207 605 144 497 l 142 292 l 26 292 l 26 294 l -50 161 l -265 161 b -339 33 -290 118 -315 75 l -124 33 l -83 33 l 133 33 b 386 471 217 179 302 325 b 598 838 457 595 528 717 l 452 1029 z "},"^":{"ha":529,"x_min":0,"x_max":0,"o":"m 243 1029 b 153 895 229 1008 198 963 b 5 675 108 828 58 755 l 217 675 b 294 788 243 713 269 751 b 316 675 302 751 309 713 l 529 675 b 488 895 514 755 500 828 b 463 1029 476 963 468 1008 l 243 1029 z "},"_":{"ha":732,"x_min":0,"x_max":0,"o":"m -361 153 l -450 -1 b 190 -1 -197 -1 -62 -1 l 279 153 l -361 153 z "},"`":{"ha":400,"x_min":0,"x_max":0,"o":"m 250 901 l -7 901 b 143 641 43 813 94 727 l 400 641 l 250 901 z "},"a":{"ha":786,"x_min":0,"x_max":0,"o":"m 75 913 l -372 172 l -373 172 l -241 -5 b -66 291 -182 95 -124 193 b -37 342 -56 308 -47 326 l 214 342 l 114 172 l 246 -5 b 422 294 304 95 363 195 b 594 586 479 391 536 489 l 540 674 l 646 674 l 786 913 l 75 913 z m 326 534 l 75 534 l 77 538 b 109 591 88 555 98 573 b 158 674 125 618 142 646 l 408 674 l 326 534 z "},"b":{"ha":768,"x_min":0,"x_max":0,"o":"m 768 913 l 62 913 b 16 835 62 913 47 887 b -96 643 -14 783 -52 718 b -228 418 -140 568 -184 492 b -336 235 -272 344 -308 283 b -373 172 -355 202 -367 181 l -241 -5 l 218 -5 l 364 235 l 383 267 l 303 418 l 557 555 l 768 913 z m -100 235 l 24 445 l 150 235 l -100 235 z m 39 470 b 107 586 61 509 84 547 l 107 587 l 52 674 l 418 674 l 39 470 z "},"c":{"ha":773,"x_min":0,"x_max":0,"o":"m -373 172 l -241 -5 l 216 -5 l 323 172 l 361 235 b 274 235 350 235 321 235 b 117 235 227 235 174 235 b -33 235 59 235 9 235 b -100 235 -76 235 -98 235 b -68 289 -90 253 -79 271 b 106 586 -11 387 47 486 l 51 674 b 339 674 146 674 242 674 b 628 674 436 674 532 674 l 773 913 l 62 913 b -128 589 -1 806 -64 698 b -373 172 -210 449 -292 310 z "},"d":{"ha":822,"x_min":0,"x_max":0,"o":"m 627 913 b -92 913 387 913 148 913 l 35 758 b -178 393 -33 642 -104 520 b -411 -5 -261 252 -338 119 l 174 -5 l 389 172 l 732 737 l 627 913 z m 444 673 l 178 235 b 71 234 142 235 106 235 b -37 233 35 233 -1 233 b -5 289 -26 252 -16 270 b 170 586 52 386 111 485 l 114 674 b 279 674 170 674 224 674 b 444 674 334 674 389 674 l 444 673 z "},"e":{"ha":745,"x_min":0,"x_max":0,"o":"m 745 913 l 78 913 l -334 235 l -373 171 l -241 -5 l 188 -5 l 190 -2 l 294 172 l 333 235 l -38 235 l -106 342 l 167 342 l 317 586 l 115 586 l 56 674 l 600 674 l 745 913 z "},"f":{"ha":770,"x_min":0,"x_max":0,"o":"m 77 913 l 62 913 b -145 560 -7 795 -76 678 b -373 172 -222 429 -298 300 l -241 -5 b -90 252 -189 83 -139 168 b -37 342 -72 282 -54 312 b 149 342 25 342 87 342 b 334 342 210 342 272 342 l 490 586 l 107 586 l 52 674 l 624 674 l 627 677 l 770 913 b 77 913 539 913 308 913 z "},"g":{"ha":770,"x_min":0,"x_max":0,"o":"m 77 913 l 62 913 b -158 538 -11 789 -84 664 b -373 172 -230 415 -302 293 l -241 -5 l -241 -5 l 212 -5 l 532 523 l 165 523 l 230 426 l 115 235 l -100 235 b -68 290 -90 253 -79 271 b 106 586 -11 387 47 486 l 51 674 l 624 674 l 770 913 l 299 913 l 77 913 z "},"h":{"ha":786,"x_min":0,"x_max":0,"o":"m 786 913 l 549 913 l 358 587 b 233 587 316 587 275 587 b 106 586 191 586 149 586 l 51 674 l 159 674 l 299 913 l 62 913 b -123 597 1 808 -61 703 b -373 172 -207 454 -290 312 l -241 -5 b -91 250 -190 82 -140 167 b -37 342 -73 281 -55 311 b 89 342 5 342 47 342 b 214 342 131 342 173 342 l 114 172 l 246 -5 b 419 289 304 94 362 192 b 594 586 476 386 534 485 l 538 674 l 646 674 l 786 913 z "},"i":{"ha":298,"x_min":0,"x_max":0,"o":"m -241 -5 b -68 289 -183 94 -125 192 b 106 586 -11 386 47 485 l 51 674 l 158 674 l 298 913 l 62 913 b -154 545 -9 791 -82 668 b -373 172 -228 420 -300 295 l -241 -5 z "},"j":{"ha":736,"x_min":0,"x_max":0,"o":"m 489 674 l 596 674 l 736 913 l 500 913 l 65 172 l -373 172 l -263 -5 l 197 -5 b 370 288 255 94 313 192 b 545 586 427 386 485 485 l 489 674 z "},"k":{"ha":764,"x_min":0,"x_max":0,"o":"m 764 913 l 520 913 l 362 648 l 39 472 b 106 586 62 509 84 548 l 51 674 l 159 674 l 299 913 l 62 913 b -118 606 3 811 -58 709 b -373 172 -203 460 -289 315 l -241 -5 b -68 288 -183 94 -125 191 b -20 372 -52 316 -36 344 l 239 -5 l 492 -5 l 210 372 l 545 553 b 593 631 560 579 576 605 b 764 913 650 725 707 819 z "},"l":{"ha":533,"x_min":0,"x_max":0,"o":"m 326 913 l 90 913 b -119 559 20 795 -49 677 b -346 172 -195 429 -271 300 l -214 -5 l 229 -5 l 95 172 l -110 172 b -41 290 -87 211 -64 250 b 134 586 16 387 75 486 l 78 674 l 186 674 l 326 913 z "},"m":{"ha":971,"x_min":0,"x_max":0,"o":"m 737 674 l 831 674 l 971 913 l 859 913 l 734 913 l 681 913 l 649 913 l 626 913 l 577 913 l 389 913 l 368 913 l 299 913 l 298 913 l 97 913 l 88 913 l 62 913 b -161 533 -12 787 -86 660 b -373 172 -232 412 -303 291 l -241 -5 b -68 288 -182 94 -125 192 b 106 586 -11 386 47 485 l 51 674 l 159 674 b 249 674 180 674 210 674 l 65 361 l 198 185 b 370 478 256 283 313 382 b 486 674 408 543 446 608 b 594 674 518 674 555 674 l 299 172 l 431 -5 b 604 289 490 94 547 192 b 779 586 661 386 720 485 l 724 674 l 737 674 z "},"n":{"ha":827,"x_min":0,"x_max":0,"o":"m 580 674 l 687 674 l 827 913 l 591 913 l 336 479 l 204 751 l 299 913 l 288 913 l 67 913 l 62 913 b -117 606 3 811 -58 709 b -373 172 -203 460 -288 315 l -241 -5 b -68 288 -182 94 -125 192 b 83 545 -18 372 32 458 l 216 273 l 155 172 l 288 -5 b 460 288 346 94 404 192 b 635 586 517 386 576 485 l 580 674 z "},"o":{"ha":776,"x_min":0,"x_max":0,"o":"m 776 913 b 77 913 543 913 311 913 l -68 674 l -334 235 l -373 172 l -268 -5 l 218 -5 l 364 235 l 776 913 z m 115 235 l -86 235 l 128 587 l 69 674 l 382 674 l 115 235 z "},"p":{"ha":777,"x_min":0,"x_max":0,"o":"m 632 674 l 777 913 l 62 913 b -161 532 -11 788 -85 661 b -373 172 -235 406 -305 286 l -237 -5 l -11 378 l 239 378 l 558 552 l 632 674 z m 37 459 l 111 587 l 54 674 l 426 674 l 37 459 z "},"q":{"ha":776,"x_min":0,"x_max":0,"o":"m 776 913 b 78 913 543 913 311 913 l -68 674 l -334 235 l -373 172 l -268 -5 l -223 -5 l -153 -5 l -190 -65 l -50 -241 l 94 -5 l 139 -5 l 218 -5 l 364 235 l 776 913 z m 115 235 l -86 235 l 128 587 l 69 674 l 382 674 l 115 235 z "},"r":{"ha":777,"x_min":0,"x_max":0,"o":"m 777 913 l 83 913 l 62 913 l -156 913 l -28 758 b -162 530 -73 682 -117 606 b -373 172 -235 406 -306 286 l -360 155 l -240 -5 l -17 369 l 240 -5 l 492 -5 l 227 372 l 303 413 l 302 413 l 558 552 l 632 674 l 777 913 z m 36 459 l 111 587 l 54 674 l 426 674 l 36 459 z "},"s":{"ha":738,"x_min":0,"x_max":0,"o":"m 738 913 l 311 913 l 54 913 l -172 554 l -212 491 l -212 490 l -212 490 l -120 342 l 161 342 l 92 235 l -373 235 l -280 -5 l 199 -5 l 544 583 l 119 583 l 45 674 l 597 674 l 738 913 z "},"t":{"ha":749,"x_min":0,"x_max":0,"o":"m 750 913 l 728 913 l 297 913 l 47 913 l -98 674 l 164 674 l -131 172 l 1 -5 b 174 289 60 94 117 192 b 349 586 231 386 290 485 l 293 674 l 605 674 l 750 913 z "},"u":{"ha":759,"x_min":0,"x_max":0,"o":"m 759 913 l 522 913 l 124 235 l -100 235 b -66 291 -89 254 -77 272 b 107 586 -9 388 48 486 l 52 674 l 159 674 l 299 913 l 62 913 b -145 559 -7 795 -76 677 b -373 172 -222 429 -298 300 l -241 -5 l -240 -5 l 219 -5 l 221 -1 l 224 3 b 392 289 280 99 336 195 b 567 586 449 387 507 486 l 511 674 l 618 674 l 759 913 z "},"v":{"ha":759,"x_min":0,"x_max":0,"o":"m -4 82 l -100 235 b -68 288 -90 252 -79 270 b 107 586 -11 385 47 485 l 52 674 l 159 674 l 299 913 l 62 913 b -159 536 -12 787 -85 662 b -373 172 -231 413 -302 292 l -241 -5 l 219 -5 b 395 294 277 94 336 194 b 567 586 452 391 509 488 l 511 674 l 618 674 l 759 913 l 522 913 l -4 82 z "},"w":{"ha":971,"x_min":0,"x_max":0,"o":"m 735 913 l 555 608 b 539 581 550 599 545 589 b 336 234 471 465 404 349 b 245 235 315 234 285 234 l 452 587 l 216 587 b 125 431 185 534 155 483 b 9 235 86 366 48 300 b -100 235 -24 235 -60 235 l -83 263 b -66 291 -77 273 -72 281 b 107 586 -9 387 48 486 l 52 674 l 159 674 l 299 913 l 62 913 l -202 462 l -241 397 l -373 172 l -241 -5 l -240 -5 b -16 -5 -165 -5 -91 -5 b 432 -5 133 -5 283 -5 b 705 459 523 150 614 304 b 971 913 793 610 882 762 l 735 913 z "},"x":{"ha":788,"x_min":0,"x_max":0,"o":"m 299 913 l 62 913 l 60 913 b -48 729 23 850 -14 789 b -83 671 -60 710 -71 690 b -30 576 -65 640 -47 608 b -3 528 -21 560 -12 544 l -260 362 b -295 304 -272 343 -283 323 b -373 172 -321 260 -347 216 l -241 -5 b -92 248 -189 82 -140 167 l 94 355 l 162 248 b 151 228 161 247 157 240 b 123 180 143 215 134 199 l 118 172 l 253 -5 b 361 178 290 57 326 118 b 394 234 372 196 383 215 b 359 298 393 235 382 257 b 278 449 336 341 309 391 b 197 602 248 507 220 557 b 159 675 173 647 160 671 l 299 913 z m 549 913 b 401 661 499 828 450 744 l 311 608 l 405 440 l 570 546 b 618 628 580 564 596 591 b 691 750 640 665 665 706 b 788 913 729 814 762 869 l 549 913 z "},"y":{"ha":760,"x_min":0,"x_max":0,"o":"m 760 913 l 535 913 l 530 913 l 524 913 l 332 586 l 106 586 l 107 586 l 51 674 l 159 674 l 299 913 l 292 913 l 79 913 l 62 913 l -240 398 l -4 398 l -3 398 l 15 398 l 221 398 l 125 235 l -241 235 l -241 234 l -336 234 l -373 172 l -241 -4 l -241 -5 l -241 -5 l 220 -5 l 221 -4 b 393 289 279 95 336 193 b 568 586 450 386 509 485 l 512 674 l 620 674 l 760 913 z "},"z":{"ha":650,"x_min":0,"x_max":0,"o":"m 439 553 b 650 913 521 693 591 813 l 298 913 l 62 913 l 60 913 l -68 692 l -77 675 b 18 675 -56 675 -24 675 b 148 676 60 676 103 676 b 263 676 193 676 231 676 b 311 675 295 676 311 675 b 244 636 311 675 289 662 b 80 541 199 610 145 578 l 74 538 l 68 534 l 62 530 l 58 528 l 56 527 l 50 524 l 46 522 l 44 520 b -5 492 28 511 12 501 l -9 489 l -11 488 l -17 485 l -23 481 l -29 478 l -33 476 l -36 474 l -42 471 l -43 470 l -54 464 l -55 463 l -60 460 l -73 453 l -77 450 l -79 450 l -85 446 l -88 444 l -90 443 l -96 439 l -99 437 l -102 436 l -109 433 l -110 431 l -115 429 l -120 425 l -121 425 l -126 422 l -132 419 l -132 419 l -138 416 l -149 409 l -153 407 l -155 406 l -161 402 l -163 401 l -166 399 l -172 396 l -173 395 l -177 393 l -182 390 l -183 389 l -188 387 l -193 384 l -193 384 l -199 380 l -203 378 l -203 378 l -209 374 l -212 373 l -214 372 l -219 369 l -221 368 l -224 366 l -229 363 l -230 362 l -277 336 l -373 172 l -241 -5 l 111 -5 b 252 235 152 65 199 145 l -100 235 l -100 235 b 172 395 -7 288 84 342 b 439 553 258 448 347 500 z "},"{":{"ha":669,"x_min":0,"x_max":0,"o":"m 465 805 l 680 805 b 753 933 704 848 729 890 l 538 933 l 497 933 l 282 933 l 20 481 l 20 483 l -94 483 l -33 388 l -183 127 l -38 -64 l 208 -64 b 212 -56 210 -61 211 -58 b 281 64 235 -16 258 24 l 37 64 b 224 389 108 189 170 296 l 163 483 l 278 483 l 278 482 b 465 805 336 582 398 690 z "},"|":{"ha":492,"x_min":0,"x_max":0,"o":"m 237 933 b -79 386 107 707 1 525 b -339 -64 -154 256 -241 106 l -83 -64 b 210 444 0 79 98 249 b 492 933 318 631 412 793 l 237 933 z "},"}":{"ha":543,"x_min":0,"x_max":0,"o":"m 397 933 l 152 933 b 128 892 144 920 136 905 b 78 805 111 863 95 834 l 323 805 b 136 481 252 681 189 573 l 197 387 l 82 387 l 82 387 b -105 64 24 288 -38 180 l -320 64 b -394 -64 -345 22 -370 -21 l -179 -64 l -138 -64 l 78 -64 l 339 389 l 339 387 l 454 387 l 393 481 l 543 742 l 397 933 z "},"~":{"ha":767,"x_min":0,"x_max":0,"o":"m 110 495 l 76 415 l -198 415 l -262 262 b 71 262 -126 262 -22 262 l 104 342 b 378 342 212 342 300 342 l 444 495 l 110 495 z "},"¡":{"ha":456,"x_min":0,"x_max":0,"o":""},"¢":{"ha":772,"x_min":0,"x_max":0,"o":""},"£":{"ha":688,"x_min":0,"x_max":0,"o":""},"¤":{"ha":688,"x_min":0,"x_max":0,"o":""},"¥":{"ha":688,"x_min":0,"x_max":0,"o":""},"¦":{"ha":688,"x_min":0,"x_max":0,"o":""},"§":{"ha":688,"x_min":0,"x_max":0,"o":""},"¨":{"ha":694,"x_min":0,"x_max":0,"o":""},"©":{"ha":1135,"x_min":0,"x_max":0,"o":"m 574 711 b 394 663 508 711 448 695 b 265 534 340 631 297 588 b 217 355 233 480 217 420 b 265 176 217 290 233 229 b 394 47 297 121 340 79 b 574 -1 448 14 508 -1 b 753 47 639 -1 699 14 b 882 176 807 79 850 121 b 930 355 914 229 930 290 b 882 534 930 420 914 480 b 753 663 850 588 807 631 b 574 711 699 695 639 711 z m 574 656 b 682 636 612 656 648 650 b 774 580 717 623 747 604 l 501 580 b 383 378 462 513 422 446 b 298 233 355 330 326 281 b 272 355 281 271 272 311 b 313 507 272 410 286 461 b 422 616 340 552 376 589 b 574 656 467 643 518 656 z m 574 54 b 465 74 535 54 498 60 b 373 130 430 87 399 106 l 576 130 l 629 216 l 648 248 b 605 248 642 248 628 248 b 528 248 582 248 556 248 b 454 248 500 248 475 248 b 422 248 433 248 422 248 b 439 276 427 257 433 267 b 523 420 466 323 494 371 l 496 463 b 637 463 543 463 589 463 b 779 463 684 463 732 463 l 819 530 b 875 355 857 478 875 420 b 834 203 875 300 861 249 b 725 94 807 158 770 121 b 574 54 680 67 629 54 z "},"ª":{"ha":439,"x_min":0,"x_max":0,"o":""},"«":{"ha":640,"x_min":0,"x_max":0,"o":""},"¬":{"ha":688,"x_min":0,"x_max":0,"o":""},"®":{"ha":1135,"x_min":0,"x_max":0,"o":"m 560 709 b 380 661 494 709 435 693 b 252 532 327 629 283 586 b 203 353 220 478 203 418 b 252 174 203 288 220 227 b 380 45 283 119 327 77 b 560 -3 435 12 494 -3 b 739 45 625 -3 686 12 b 868 174 793 77 836 119 b 916 353 901 227 916 288 b 868 532 916 418 901 478 b 739 661 836 586 793 629 b 560 709 686 693 625 709 z m 288 223 b 258 353 269 263 258 307 b 299 505 258 408 272 459 b 408 614 326 550 363 587 b 560 654 454 641 505 654 b 680 629 603 654 643 646 b 777 562 718 613 749 591 l 496 562 l 486 562 l 384 562 l 444 489 b 381 382 423 453 402 418 b 288 223 349 328 318 274 z m 483 450 l 656 450 l 474 349 l 509 408 l 483 450 z m 560 52 b 444 75 519 52 480 59 b 349 138 408 90 376 111 l 449 307 l 570 132 l 688 132 l 564 308 l 599 327 l 718 393 l 753 450 l 803 531 b 861 353 842 479 861 420 b 821 201 861 298 848 247 b 711 92 793 156 757 119 b 560 52 666 65 615 52 z "},"¯":{"ha":694,"x_min":0,"x_max":0,"o":""},"°":{"ha":457,"x_min":0,"x_max":0,"o":""},"±":{"ha":688,"x_min":0,"x_max":0,"o":""},"²":{"ha":688,"x_min":0,"x_max":0,"o":""},"³":{"ha":688,"x_min":0,"x_max":0,"o":""},"´":{"ha":694,"x_min":0,"x_max":0,"o":""},"µ":{"ha":800,"x_min":0,"x_max":0,"o":""},"¶":{"ha":694,"x_min":0,"x_max":0,"o":""},"·":{"ha":345,"x_min":0,"x_max":0,"o":""},"¸":{"ha":694,"x_min":0,"x_max":0,"o":""},"¹":{"ha":688,"x_min":0,"x_max":0,"o":""},"º":{"ha":1032,"x_min":0,"x_max":0,"o":""},"»":{"ha":640,"x_min":0,"x_max":0,"o":""},"¼":{"ha":1158,"x_min":0,"x_max":0,"o":""},"½":{"ha":1607,"x_min":0,"x_max":0,"o":""},"¾":{"ha":1158,"x_min":0,"x_max":0,"o":""},"¿":{"ha":507,"x_min":0,"x_max":0,"o":""},"À":{"ha":1044,"x_min":0,"x_max":0,"o":""},"Á":{"ha":1044,"x_min":0,"x_max":0,"o":""},"Â":{"ha":1044,"x_min":0,"x_max":0,"o":""},"Ã":{"ha":1044,"x_min":0,"x_max":0,"o":""},"Ä":{"ha":1044,"x_min":0,"x_max":0,"o":""},"Å":{"ha":1044,"x_min":0,"x_max":0,"o":""},"Æ":{"ha":1417,"x_min":0,"x_max":0,"o":""},"Ç":{"ha":949,"x_min":0,"x_max":0,"o":""},"È":{"ha":781,"x_min":0,"x_max":0,"o":""},"É":{"ha":781,"x_min":0,"x_max":0,"o":""},"Ê":{"ha":781,"x_min":0,"x_max":0,"o":""},"Ë":{"ha":781,"x_min":0,"x_max":0,"o":""},"Ì":{"ha":446,"x_min":0,"x_max":0,"o":""},"Í":{"ha":446,"x_min":0,"x_max":0,"o":""},"Î":{"ha":446,"x_min":0,"x_max":0,"o":""},"Ï":{"ha":446,"x_min":0,"x_max":0,"o":""},"Ð":{"ha":1029,"x_min":0,"x_max":0,"o":""},"Ñ":{"ha":1054,"x_min":0,"x_max":0,"o":""},"Ò":{"ha":1095,"x_min":0,"x_max":0,"o":""},"Ó":{"ha":1095,"x_min":0,"x_max":0,"o":""},"Ô":{"ha":1095,"x_min":0,"x_max":0,"o":""},"Õ":{"ha":1095,"x_min":0,"x_max":0,"o":""},"Ö":{"ha":1095,"x_min":0,"x_max":0,"o":""},"×":{"ha":688,"x_min":0,"x_max":0,"o":""},"Ø":{"ha":1095,"x_min":0,"x_max":0,"o":""},"Ù":{"ha":1018,"x_min":0,"x_max":0,"o":""},"Ú":{"ha":1018,"x_min":0,"x_max":0,"o":""},"Û":{"ha":1018,"x_min":0,"x_max":0,"o":""},"Ü":{"ha":1018,"x_min":0,"x_max":0,"o":""},"Ý":{"ha":836,"x_min":0,"x_max":0,"o":""},"Þ":{"ha":760,"x_min":0,"x_max":0,"o":""},"ß":{"ha":848,"x_min":0,"x_max":0,"o":""},"à":{"ha":625,"x_min":0,"x_max":0,"o":""},"á":{"ha":625,"x_min":0,"x_max":0,"o":""},"â":{"ha":625,"x_min":0,"x_max":0,"o":""},"ã":{"ha":625,"x_min":0,"x_max":0,"o":""},"ä":{"ha":625,"x_min":0,"x_max":0,"o":""},"å":{"ha":625,"x_min":0,"x_max":0,"o":""},"æ":{"ha":984,"x_min":0,"x_max":0,"o":""},"ç":{"ha":614,"x_min":0,"x_max":0,"o":""},"è":{"ha":616,"x_min":0,"x_max":0,"o":""},"é":{"ha":616,"x_min":0,"x_max":0,"o":""},"ê":{"ha":616,"x_min":0,"x_max":0,"o":""},"ë":{"ha":616,"x_min":0,"x_max":0,"o":""},"ì":{"ha":349,"x_min":0,"x_max":0,"o":""},"í":{"ha":349,"x_min":0,"x_max":0,"o":""},"î":{"ha":349,"x_min":0,"x_max":0,"o":""},"ï":{"ha":349,"x_min":0,"x_max":0,"o":""},"ð":{"ha":772,"x_min":0,"x_max":0,"o":""},"ñ":{"ha":751,"x_min":0,"x_max":0,"o":""},"ò":{"ha":685,"x_min":0,"x_max":0,"o":""},"ó":{"ha":685,"x_min":0,"x_max":0,"o":""},"ô":{"ha":685,"x_min":0,"x_max":0,"o":""},"õ":{"ha":685,"x_min":0,"x_max":0,"o":""},"ö":{"ha":685,"x_min":0,"x_max":0,"o":""},"÷":{"ha":688,"x_min":0,"x_max":0,"o":""},"ø":{"ha":685,"x_min":0,"x_max":0,"o":""},"ù":{"ha":718,"x_min":0,"x_max":0,"o":""},"ú":{"ha":718,"x_min":0,"x_max":0,"o":""},"û":{"ha":718,"x_min":0,"x_max":0,"o":""},"ü":{"ha":718,"x_min":0,"x_max":0,"o":""},"ý":{"ha":589,"x_min":0,"x_max":0,"o":""},"þ":{"ha":685,"x_min":0,"x_max":0,"o":""},"ÿ":{"ha":589,"x_min":0,"x_max":0,"o":""},"ı":{"ha":349,"x_min":0,"x_max":0,"o":""},"̀":{"ha":0,"x_min":0,"x_max":0,"o":""},"́":{"ha":0,"x_min":0,"x_max":0,"o":""},"̂":{"ha":0,"x_min":0,"x_max":0,"o":""},"̃":{"ha":0,"x_min":0,"x_max":0,"o":""},"̄":{"ha":0,"x_min":0,"x_max":0,"o":""},"̇":{"ha":0,"x_min":0,"x_max":0,"o":""},"̈":{"ha":0,"x_min":0,"x_max":0,"o":""},"̊":{"ha":0,"x_min":0,"x_max":0,"o":""},"̌":{"ha":0,"x_min":0,"x_max":0,"o":""},"̧":{"ha":0,"x_min":0,"x_max":0,"o":""},"–":{"ha":751,"x_min":0,"x_max":0,"o":""},"—":{"ha":1389,"x_min":0,"x_max":0,"o":""},"‘":{"ha":469,"x_min":0,"x_max":0,"o":"m 351 654 l 246 654 l 187 552 l 185 552 b 35 292 135 466 85 380 l 292 292 l 441 552 l 292 552 l 351 654 z "},"’":{"ha":442,"x_min":0,"x_max":0,"o":"m 35 394 l 185 394 l 126 292 l 231 292 l 290 394 l 292 394 b 442 654 341 480 391 567 l 185 654 l 35 394 z "},"‚":{"ha":397,"x_min":0,"x_max":0,"o":"m -10 3 l 140 3 l 81 -98 l 185 -98 l 244 3 l 246 3 b 397 264 296 90 346 176 l 140 264 l -10 3 z "},"“":{"ha":708,"x_min":0,"x_max":0,"o":"m 254 552 l 313 654 l 208 654 l 149 552 l 147 552 b -3 292 98 466 47 380 l 254 292 l 404 552 l 254 552 z m 616 654 l 512 654 l 453 552 l 451 552 b 301 292 401 466 351 380 l 557 292 l 708 552 l 557 552 l 616 654 z "},"”":{"ha":711,"x_min":0,"x_max":0,"o":"m 304 394 l 454 394 l 395 292 l 500 292 l 559 394 l 561 394 b 711 654 610 480 661 567 l 454 654 l 304 394 z m 151 654 l 1 394 l 151 394 l 92 292 l 196 292 l 255 394 l 257 394 b 408 654 307 480 357 567 l 151 654 z "},"„":{"ha":693,"x_min":0,"x_max":0,"o":"m 132 264 l -18 3 l 132 3 l 73 -98 l 178 -98 l 237 3 l 239 3 b 389 264 288 90 338 176 l 132 264 z m 436 264 l 286 3 l 436 3 l 377 -98 l 481 -98 l 541 3 l 543 3 b 693 264 592 90 642 176 l 436 264 z "},"†":{"ha":688,"x_min":0,"x_max":0,"o":""},"‡":{"ha":688,"x_min":0,"x_max":0,"o":""},"•":{"ha":694,"x_min":0,"x_max":0,"o":""},"…":{"ha":1389,"x_min":0,"x_max":0,"o":""},"‹":{"ha":428,"x_min":0,"x_max":0,"o":""},"›":{"ha":428,"x_min":0,"x_max":0,"o":""},"⁄":{"ha":232,"x_min":0,"x_max":0,"o":""},"₣":{"ha":688,"x_min":0,"x_max":0,"o":""},"₤":{"ha":688,"x_min":0,"x_max":0,"o":""},"₧":{"ha":1375,"x_min":0,"x_max":0,"o":""},"€":{"ha":688,"x_min":0,"x_max":0,"o":""},"№":{"ha":1540,"x_min":0,"x_max":0,"o":""},"™":{"ha":1015,"x_min":0,"x_max":0,"o":""},"∂":{"ha":688,"x_min":0,"x_max":0,"o":""},"∆":{"ha":733,"x_min":0,"x_max":0,"o":""},"∏":{"ha":1027,"x_min":0,"x_max":0,"o":""},"∑":{"ha":818,"x_min":0,"x_max":0,"o":""},"−":{"ha":688,"x_min":0,"x_max":0,"o":""},"√":{"ha":688,"x_min":0,"x_max":0,"o":""},"∞":{"ha":688,"x_min":0,"x_max":0,"o":""},"∫":{"ha":451,"x_min":0,"x_max":0,"o":""},"≈":{"ha":688,"x_min":0,"x_max":0,"o":""},"≤":{"ha":688,"x_min":0,"x_max":0,"o":""},"≥":{"ha":688,"x_min":0,"x_max":0,"o":""},"ﬁ":{"ha":728,"x_min":0,"x_max":0,"o":""},"ﬂ":{"ha":733,"x_min":0,"x_max":0,"o":""}}}
